<svg xmlns="http://www.w3.org/2000/svg" viewBox="0 0 100 100" width="100" height="100">
  <!-- Background circle with gradient -->
  <defs>
    <linearGradient id="bgGradient" x1="0%" y1="0%" x2="100%" y2="100%">
      <stop offset="0%" style="stop-color:#1f2937;stop-opacity:1" />
      <stop offset="100%" style="stop-color:#111827;stop-opacity:1" />
    </linearGradient>
    <linearGradient id="textGradient" x1="0%" y1="0%" x2="100%" y2="100%">
      <stop offset="0%" style="stop-color:#14b8a6;stop-opacity:1" />
      <stop offset="100%" style="stop-color:#0d9488;stop-opacity:1" />
    </linearGradient>
    <filter id="glow">
      <feGaussianBlur stdDeviation="2" result="coloredBlur"/>
      <feMerge> 
        <feMergeNode in="coloredBlur"/>
        <feMergeNode in="SourceGraphic"/>
      </feMerge>
    </filter>
  </defs>
  
  <!-- Background circle -->
  <circle cx="50" cy="50" r="48" fill="url(#bgGradient)" stroke="#0d9488" stroke-width="2"/>
  
  <!-- Futuristic border effect -->
  <circle cx="50" cy="50" r="45" fill="none" stroke="#14b8a6" stroke-width="0.5" opacity="0.6"/>
  <circle cx="50" cy="50" r="42" fill="none" stroke="#2dd4bf" stroke-width="0.3" opacity="0.4"/>
  
  <!-- Letter L -->
  <path d="M 25 25 L 25 65 L 40 65 L 40 60 L 30 60 L 30 25 Z" 
        fill="url(#textGradient)" 
        filter="url(#glow)"
        stroke="#14b8a6" 
        stroke-width="0.5"/>
  
  <!-- Letter D -->
  <path d="M 55 25 L 55 65 L 65 65 Q 75 65 75 55 L 75 35 Q 75 25 65 25 Z M 60 30 L 65 30 Q 70 30 70 35 L 70 55 Q 70 60 65 60 L 60 60 Z" 
        fill="url(#textGradient)" 
        filter="url(#glow)"
        stroke="#14b8a6" 
        stroke-width="0.5"/>
  
  <!-- Tech accent lines -->
  <line x1="20" y1="20" x2="28" y2="20" stroke="#0d9488" stroke-width="1" opacity="0.8"/>
  <line x1="72" y1="20" x2="80" y2="20" stroke="#0d9488" stroke-width="1" opacity="0.8"/>
  <line x1="20" y1="80" x2="28" y2="80" stroke="#0d9488" stroke-width="1" opacity="0.8"/>
  <line x1="72" y1="80" x2="80" y2="80" stroke="#0d9488" stroke-width="1" opacity="0.8"/>
</svg> 